<svg width="22" height="20" viewBox="0 0 22 20" fill="none" xmlns="http://www.w3.org/2000/svg">
<path d="M11 0C11 0 4.1954 5.93333 0.3927 9.14667C0.1694 9.35111 0 9.64889 0 10C0 10.6144 0.4917 11.1111 1.1 11.1111H3.3V18.8889C3.3 19.5033 3.7917 20 4.4 20H7.7C8.3083 20 8.8 19.5022 8.8 18.8889V14.4444H13.2V18.8889C13.2 19.5022 13.6917 20 14.3 20H17.6C18.2083 20 18.7 19.5033 18.7 18.8889V11.1111H20.9C21.5083 11.1111 22 10.6144 22 10C22 9.64889 21.8306 9.35111 21.5787 9.14667C17.8024 5.93333 11 0 11 0Z" fill="white"/>
</svg>
