<svg width="24" height="20" viewBox="0 0 24 20" fill="none" xmlns="http://www.w3.org/2000/svg">
<path d="M1.6 3.63636H22.4C22.8243 3.63636 23.2313 3.44481 23.5314 3.10383C23.8314 2.76286 24 2.30039 24 1.81818C24 1.33597 23.8314 0.873508 23.5314 0.532533C23.2313 0.191558 22.8243 0 22.4 0H1.6C1.17565 0 0.768687 0.191558 0.468629 0.532533C0.168571 0.873508 0 1.33597 0 1.81818C0 2.30039 0.168571 2.76286 0.468629 3.10383C0.768687 3.44481 1.17565 3.63636 1.6 3.63636Z" fill="white"/>
<path d="M22.4 8.18182H1.6C1.17565 8.18182 0.768687 8.37338 0.468629 8.71435C0.168571 9.05533 0 9.51779 0 10C0 10.4822 0.168571 10.9447 0.468629 11.2856C0.768687 11.6266 1.17565 11.8182 1.6 11.8182H22.4C22.8243 11.8182 23.2313 11.6266 23.5314 11.2856C23.8314 10.9447 24 10.4822 24 10C24 9.51779 23.8314 9.05533 23.5314 8.71435C23.2313 8.37338 22.8243 8.18182 22.4 8.18182Z" fill="white"/>
<path d="M22.4 16.3636H1.6C1.17565 16.3636 0.768687 16.5552 0.468629 16.8962C0.168571 17.2371 0 17.6996 0 18.1818C0 18.664 0.168571 19.1265 0.468629 19.4675C0.768687 19.8084 1.17565 20 1.6 20H22.4C22.8243 20 23.2313 19.8084 23.5314 19.4675C23.8314 19.1265 24 18.664 24 18.1818C24 17.6996 23.8314 17.2371 23.5314 16.8962C23.2313 16.5552 22.8243 16.3636 22.4 16.3636Z" fill="white"/>
</svg>
