<svg width="20" height="20" viewBox="0 0 20 20" fill="none" xmlns="http://www.w3.org/2000/svg">
<path d="M18.1217 0H1.84309C0.840935 0 0 0.959375 0 2.14286V17.8571C0 19.0406 0.840931 20 1.84308 20H18.1217C19.1591 20 20 19.0406 20 17.8571V2.14286C20 0.959375 19.1939 0 18.1217 0ZM4.34749 16.7857C4.34749 16.9829 4.20732 17.1429 4.03444 17.1429H2.15614C1.98326 17.1429 1.84309 16.9829 1.84309 16.7857V14.6429C1.84309 14.4456 1.98326 14.2857 2.15614 14.2857H3.99922C4.1721 14.2857 4.31227 14.4456 4.31227 14.6429L4.34749 16.7857ZM4.34749 11.0714C4.34749 11.2687 4.20732 11.4286 4.03444 11.4286H2.15614C1.98326 11.4286 1.84309 11.2687 1.84309 11.0714V8.92857C1.84309 8.73134 1.98326 8.57143 2.15614 8.57143H3.99922C4.1721 8.57143 4.31227 8.73134 4.31227 8.92857V11.0714H4.34749ZM4.34749 5.35714C4.34749 5.55438 4.20732 5.71429 4.03444 5.71429H2.15614C1.98326 5.71429 1.84309 5.55438 1.84309 5.35714V3.21429C1.84309 3.01705 1.98326 2.85714 2.15614 2.85714H3.99922C4.1721 2.85714 4.31227 3.01705 4.31227 3.21429L4.34749 5.35714ZM13.739 16.4286C13.739 16.823 13.4587 17.1429 13.1129 17.1429H6.85189C6.50613 17.1429 6.22579 16.823 6.22579 16.4286V12.1429C6.22579 11.7483 6.50613 11.4286 6.85189 11.4286H13.1129C13.4587 11.4286 13.739 11.7483 13.739 12.1429V16.4286ZM13.739 7.85714C13.739 8.25161 13.4587 8.57143 13.1129 8.57143H6.85189C6.50613 8.57143 6.22579 8.25161 6.22579 7.85714V3.57143C6.22579 3.17688 6.50613 2.85714 6.85189 2.85714H13.1129C13.4587 2.85714 13.739 3.17688 13.739 3.57143V7.85714ZM18.1217 16.7857C18.1217 16.9829 17.9815 17.1429 17.8087 17.1429H15.9656C15.7927 17.1429 15.6877 16.9829 15.6877 16.7857V14.6429C15.6877 14.4456 15.8279 14.2857 16.0008 14.2857H17.8439C18.0168 14.2857 18.1569 14.4456 18.1569 14.6429V16.7857H18.1217ZM18.1217 11.0714C18.1217 11.2687 17.9815 11.4286 17.8087 11.4286H15.9656C15.7927 11.4286 15.6525 11.2687 15.6525 11.0714V8.92857C15.6525 8.73134 15.7927 8.57143 15.9656 8.57143H17.8087C17.9815 8.57143 18.1217 8.73134 18.1217 8.92857V11.0714ZM18.1217 5.35714C18.1217 5.55438 17.9815 5.71429 17.8087 5.71429H15.9656C15.7927 5.71429 15.6525 5.55438 15.6525 5.35714V3.21429C15.6525 3.01705 15.7927 2.85714 15.9303 2.85714H17.7734C17.9463 2.85714 18.0865 3.01705 18.0865 3.21429V5.35714H18.1217Z" fill="white"/>
</svg>
