<svg width="20" height="20" viewBox="0 0 20 20" fill="none" xmlns="http://www.w3.org/2000/svg">
<path d="M19.9245 7.51424C19.7567 7.01139 19.3324 6.65068 18.8182 6.5721L13.5977 5.78997L11.2478 0.801424C11.0142 0.307141 10.5364 0 10 0C9.4636 0 8.98576 0.307141 8.7522 0.801424L6.4366 5.77211L1.18185 6.5721C0.667587 6.65068 0.244036 7.01139 0.0754722 7.51424C-0.0966625 8.03067 0.0304742 8.59066 0.407599 8.97566L4.20813 12.8656L3.31032 18.3485C3.22104 18.8963 3.44245 19.4327 3.88958 19.7477C4.31956 20.0527 4.87239 20.0827 5.33237 19.8292L9.96714 17.2406L14.6676 19.8292C15.129 20.0827 15.6804 20.0513 16.1104 19.7477C16.5575 19.4327 16.7797 18.8963 16.6897 18.3485L15.7904 12.8585L19.5924 8.97566C19.9695 8.59066 20.0967 8.03067 19.9245 7.51424Z" fill="white"/>
</svg>
